<?xml version="1.0" standalone="no"?>
<!DOCTYPE svg PUBLIC "-//W3C//DTD SVG 20010904//EN"
 "http://www.w3.org/TR/2001/REC-SVG-20010904/DTD/svg10.dtd">
<svg version="1.0" xmlns="http://www.w3.org/2000/svg"
 width="570.000000pt" height="570.000000pt" viewBox="0 0 570.000000 570.000000"
 preserveAspectRatio="xMidYMid meet">
<metadata>
Created by potrace 1.11, written by Peter Selinger 2001-2013
</metadata>
<g transform="translate(0.000000,570.000000) scale(0.100000,-0.100000)"
fill="#000000" stroke="none">
<path d="M2649 5635 c-2 -2 -35 -6 -74 -9 -38 -3 -86 -8 -105 -11 -19 -3 -48
-7 -65 -9 -62 -8 -111 -17 -140 -26 -16 -5 -43 -11 -60 -13 -16 -3 -37 -8 -45
-11 -8 -3 -26 -7 -40 -10 -39 -7 -186 -53 -209 -66 -12 -6 -21 -9 -21 -6 0 9
-241 -94 -338 -145 -53 -28 -110 -58 -127 -67 -40 -20 -305 -196 -330 -219
-12 -10 -45 -38 -75 -62 -119 -97 -283 -262 -380 -381 -25 -30 -47 -57 -50
-60 -3 -3 -31 -41 -63 -85 -31 -44 -60 -85 -65 -90 -5 -6 -21 -33 -37 -60 -16
-28 -34 -57 -41 -65 -26 -31 -153 -289 -198 -403 -46 -114 -120 -347 -132
-410 -3 -18 -9 -50 -14 -72 -5 -22 -11 -56 -14 -75 -8 -47 -15 -89 -22 -123
l-6 -27 857 2 858 3 27 70 c38 99 118 245 150 275 3 3 21 25 41 50 71 88 230
230 258 230 6 0 11 3 11 8 0 4 8 12 19 17 10 6 46 25 80 43 58 30 174 78 214
87 10 2 27 7 38 10 11 4 32 8 47 10 15 3 38 7 52 10 44 11 303 14 355 4 28 -5
66 -12 84 -15 54 -9 224 -69 283 -100 108 -57 253 -164 311 -229 10 -11 33
-36 50 -55 76 -84 155 -214 203 -333 l32 -82 867 -3 867 -2 -8 32 c-4 18 -8
44 -9 58 -4 31 -31 165 -51 249 -92 378 -284 766 -541 1091 -96 122 -223 254
-348 364 -135 118 -144 126 -151 126 -3 0 -11 6 -19 13 -7 7 -46 36 -86 63
-41 27 -76 52 -79 55 -9 10 -236 139 -245 139 -5 0 -16 7 -25 15 -10 9 -27 18
-40 20 -12 2 -27 8 -34 14 -17 14 -265 113 -316 126 -3 1 -12 4 -20 8 -48 19
-244 69 -320 82 -19 3 -46 8 -60 10 -56 12 -77 15 -120 21 -25 3 -63 8 -85 11
-47 6 -491 13 -496 8z"/>
<path d="M2748 3555 c-3 -3 -21 -7 -40 -9 -142 -14 -331 -134 -434 -276 -88
-121 -127 -240 -128 -395 -1 -146 11 -207 63 -315 89 -184 235 -308 439 -372
106 -34 307 -31 407 6 189 70 325 186 405 346 47 94 48 98 64 175 19 90 14
250 -9 330 -20 68 -59 154 -92 205 -31 46 -163 180 -178 180 -7 0 -18 7 -25
15 -16 19 -109 63 -185 87 -57 19 -274 36 -287 23z"/>
<path d="M37 2582 c-37 -3 -37 -4 -32 -40 17 -134 51 -284 97 -437 31 -102
107 -305 132 -353 7 -15 35 -70 61 -122 54 -106 173 -303 186 -308 5 -2 9 -10
9 -17 0 -7 3 -15 8 -17 4 -1 19 -21 35 -44 15 -22 35 -49 45 -60 9 -10 29 -35
43 -54 62 -83 246 -272 349 -359 30 -25 66 -56 80 -69 14 -13 37 -31 53 -40
15 -9 27 -20 27 -24 0 -4 7 -8 15 -8 8 0 15 -4 15 -8 0 -4 13 -16 30 -25 16
-10 35 -23 43 -30 12 -11 23 -18 80 -49 12 -7 24 -15 27 -18 12 -12 112 -69
195 -112 203 -104 428 -188 635 -236 135 -32 187 -42 302 -57 199 -27 589 -27
748 0 14 2 43 6 65 10 22 3 65 10 95 15 51 9 65 12 119 24 228 51 583 191 778
306 64 38 168 104 173 110 3 3 22 16 43 29 21 13 43 28 50 35 6 6 28 23 47 36
19 13 40 29 46 35 6 5 33 28 60 50 69 56 280 267 351 351 32 38 81 101 108
140 27 38 52 71 55 74 3 3 21 30 40 60 19 30 38 58 43 61 5 3 8 8 6 10 -1 2 9
22 23 44 26 42 126 230 129 243 0 4 10 24 20 45 11 20 17 37 14 37 -2 0 4 16
15 35 11 20 20 40 20 46 0 5 7 26 17 47 9 20 17 39 18 42 9 28 39 127 41 133
1 4 2 8 4 10 2 2 5 17 14 55 3 12 7 26 10 30 3 5 8 24 11 43 3 19 14 72 24
119 11 47 19 92 19 100 0 8 4 34 10 58 8 35 8 44 -4 49 -8 3 -17 3 -20 0 -3
-3 -19 -1 -35 3 -18 5 -29 5 -29 -1 0 -6 -5 -7 -11 -4 -6 4 -34 7 -62 6 -79
-2 -115 -2 -207 -2 -47 1 -98 0 -115 -2 -16 -1 -42 1 -57 5 -17 4 -28 3 -28
-3 0 -6 -5 -7 -11 -4 -6 4 -34 7 -62 6 -79 -2 -115 -2 -207 -2 -47 1 -98 0
-115 -2 -16 -1 -42 1 -58 5 -16 4 -27 3 -27 -3 0 -6 -5 -7 -11 -4 -6 4 -34 6
-62 6 -91 -2 -101 -3 -127 -2 -54 3 -86 3 -100 2 -8 -1 -24 -1 -35 -1 -11 1
-27 1 -35 0 -8 0 -28 0 -45 1 -16 1 -37 1 -45 0 -8 -1 -24 -1 -35 -1 -19 1
-28 1 -57 -1 -7 0 -31 0 -53 0 -70 1 -73 0 -80 -27 -6 -24 -28 -78 -58 -142
-6 -14 -26 -49 -44 -78 -18 -29 -33 -56 -33 -61 0 -5 -3 -11 -7 -13 -5 -1 -21
-20 -37 -41 -75 -101 -149 -169 -321 -295 -51 -37 -228 -110 -335 -137 -95
-24 -122 -27 -260 -30 -144 -4 -240 8 -365 46 -69 21 -225 87 -235 100 -3 3
-19 14 -37 22 -86 45 -265 206 -328 297 -31 44 -33 47 -76 115 -21 34 -49 88
-54 105 -1 3 -11 25 -22 50 -11 25 -23 55 -27 67 -6 19 -14 22 -50 21 -24 0
-49 3 -55 6 -6 4 -11 2 -11 -4 0 -6 -5 -8 -11 -5 -6 4 -34 7 -62 6 -29 -1 -70
-1 -92 -1 -22 -1 -69 -1 -105 -1 -36 0 -69 0 -75 0 -51 1 -186 0 -210 -2 -16
-1 -42 1 -57 5 -17 4 -28 3 -28 -3 0 -6 -5 -7 -11 -4 -6 4 -34 7 -62 6 -29 -1
-70 -1 -92 -1 -22 -1 -69 -1 -105 -1 -36 0 -69 0 -75 0 -51 1 -186 0 -210 -2
-16 -1 -42 1 -57 5 -17 4 -28 3 -28 -3 0 -6 -5 -7 -11 -4 -10 7 -82 8 -144 2
-16 -1 -43 0 -60 3 -16 3 -47 4 -68 2z"/>
</g>
</svg>
