<svg width="285" height="279" viewBox="0 0 285 279" fill="none" xmlns="http://www.w3.org/2000/svg">
<path d="M0.118027 125.5C8.97278 54.7433 69.3434 0 142.5 0C215.657 0 276.027 54.7433 284.882 125.5H198.361C190.905 101.46 168.492 84 142 84C115.508 84 93.0947 101.46 85.6386 125.5H0.118027Z" fill="#C4C4C4"/>
<path d="M0 153C8.85475 223.757 69.2254 278.5 142.382 278.5C215.539 278.5 275.909 223.757 284.764 153H198.243C190.787 177.04 168.374 194.5 141.882 194.5C115.39 194.5 92.9767 177.04 85.5206 153H0Z" fill="#C4C4C4"/>
<path d="M177 139C177 158.33 161.33 174 142 174C122.67 174 107 158.33 107 139C107 119.67 122.67 104 142 104C161.33 104 177 119.67 177 139Z" fill="#C4C4C4"/>
</svg>